<mxfile host="app.diagrams.net" modified="2023-10-06T21:07:20.607Z" agent="Mozilla/5.0 (X11; Linux x86_64) AppleWebKit/537.36 (KHTML, like Gecko) Chrome/116.0.0.0 Safari/537.36" etag="K96ixe3U0hTfpQ7bMXt5" version="22.0.3" type="device">
  <diagram name="Page-1" id="qd4SkNwmO9cXs2zdYate">
    <mxGraphModel dx="1389" dy="782" grid="1" gridSize="10" guides="1" tooltips="1" connect="1" arrows="1" fold="1" page="1" pageScale="1" pageWidth="1169" pageHeight="827" math="0" shadow="0">
      <root>
        <mxCell id="pf_jKpd6K8KukFcOtvKg-0" />
        <mxCell id="pf_jKpd6K8KukFcOtvKg-1" parent="pf_jKpd6K8KukFcOtvKg-0" />
        <mxCell id="pf_jKpd6K8KukFcOtvKg-2" value="isMemberOf" style="edgeStyle=orthogonalEdgeStyle;rounded=0;orthogonalLoop=1;jettySize=auto;html=1;exitX=0.5;exitY=1;exitDx=0;exitDy=0;entryX=0.5;entryY=0;entryDx=0;entryDy=0;startArrow=classic;startFill=1;endArrow=none;endFill=0;" parent="pf_jKpd6K8KukFcOtvKg-1" source="pf_jKpd6K8KukFcOtvKg-3" target="pf_jKpd6K8KukFcOtvKg-4" edge="1">
          <mxGeometry x="0.2394" relative="1" as="geometry">
            <Array as="points" />
            <mxPoint as="offset" />
          </mxGeometry>
        </mxCell>
        <mxCell id="5jrdtUEiYuSveqaGcEDk-1" style="edgeStyle=orthogonalEdgeStyle;rounded=0;orthogonalLoop=1;jettySize=auto;html=1;exitX=0;exitY=0.75;exitDx=0;exitDy=0;entryX=0;entryY=0.5;entryDx=0;entryDy=0;startArrow=none;startFill=0;endArrow=classic;endFill=1;" parent="pf_jKpd6K8KukFcOtvKg-1" source="pf_jKpd6K8KukFcOtvKg-3" target="bbpX5XB24P7KYAWKwHYj-0" edge="1">
          <mxGeometry relative="1" as="geometry">
            <Array as="points">
              <mxPoint x="90" y="525" />
              <mxPoint x="90" y="112" />
            </Array>
          </mxGeometry>
        </mxCell>
        <mxCell id="5jrdtUEiYuSveqaGcEDk-2" value="proposesProcessScheme" style="edgeLabel;html=1;align=center;verticalAlign=middle;resizable=0;points=[];fontStyle=1" parent="5jrdtUEiYuSveqaGcEDk-1" vertex="1" connectable="0">
          <mxGeometry x="0.1192" relative="1" as="geometry">
            <mxPoint as="offset" />
          </mxGeometry>
        </mxCell>
        <mxCell id="pf_jKpd6K8KukFcOtvKg-3" value="Organization" style="rounded=1;whiteSpace=wrap;html=1;" parent="pf_jKpd6K8KukFcOtvKg-1" vertex="1">
          <mxGeometry x="528.95" y="479.96" width="120" height="60" as="geometry" />
        </mxCell>
        <mxCell id="pf_jKpd6K8KukFcOtvKg-4" value="Agent" style="rounded=1;whiteSpace=wrap;html=1;" parent="pf_jKpd6K8KukFcOtvKg-1" vertex="1">
          <mxGeometry x="528.95" y="610.9599999999999" width="120" height="60" as="geometry" />
        </mxCell>
        <mxCell id="pf_jKpd6K8KukFcOtvKg-5" value="Activity&lt;br&gt;Scheme" style="rounded=1;whiteSpace=wrap;html=1;fontSize=12;fontStyle=1;fillColor=#f5f5f5;fontColor=#333333;strokeColor=#666666;" parent="pf_jKpd6K8KukFcOtvKg-1" vertex="1">
          <mxGeometry x="240" y="256.09000000000003" width="120" height="63" as="geometry" />
        </mxCell>
        <mxCell id="pf_jKpd6K8KukFcOtvKg-6" value="achievesOrganizationalGoal" style="endArrow=none;html=1;rounded=0;startArrow=classic;startFill=1;endFill=0;fontStyle=1;edgeStyle=orthogonalEdgeStyle;exitX=0;exitY=0.5;exitDx=0;exitDy=0;entryX=1;entryY=0.5;entryDx=0;entryDy=0;" parent="pf_jKpd6K8KukFcOtvKg-1" source="pf_jKpd6K8KukFcOtvKg-14" target="pf_jKpd6K8KukFcOtvKg-5" edge="1">
          <mxGeometry x="-0.0027" y="-12" width="50" height="50" relative="1" as="geometry">
            <mxPoint x="610" y="310" as="sourcePoint" />
            <mxPoint x="510" y="320" as="targetPoint" />
            <mxPoint x="-12" y="12" as="offset" />
          </mxGeometry>
        </mxCell>
        <mxCell id="pf_jKpd6K8KukFcOtvKg-7" value="&lt;div&gt;gathersOrganizationalGoal&lt;br&gt;&lt;/div&gt;" style="endArrow=none;html=1;rounded=0;exitX=1;exitY=0.5;exitDx=0;exitDy=0;startArrow=classic;startFill=1;endFill=0;fontStyle=1;edgeStyle=orthogonalEdgeStyle;entryX=0;entryY=0.5;entryDx=0;entryDy=0;" parent="pf_jKpd6K8KukFcOtvKg-1" source="pf_jKpd6K8KukFcOtvKg-14" target="pf_jKpd6K8KukFcOtvKg-8" edge="1">
          <mxGeometry x="-0.002" y="-12" width="50" height="50" relative="1" as="geometry">
            <mxPoint x="640.95" y="190.96" as="sourcePoint" />
            <mxPoint x="800" y="288" as="targetPoint" />
            <mxPoint as="offset" />
          </mxGeometry>
        </mxCell>
        <mxCell id="pf_jKpd6K8KukFcOtvKg-8" value="Mission" style="rounded=1;whiteSpace=wrap;html=1;fontStyle=0" parent="pf_jKpd6K8KukFcOtvKg-1" vertex="1">
          <mxGeometry x="820" y="257.59000000000003" width="120" height="60" as="geometry" />
        </mxCell>
        <mxCell id="pf_jKpd6K8KukFcOtvKg-9" value="proposesMission" style="edgeStyle=orthogonalEdgeStyle;rounded=0;orthogonalLoop=1;jettySize=auto;html=1;entryX=0.5;entryY=1;entryDx=0;entryDy=0;exitX=1;exitY=0.25;exitDx=0;exitDy=0;" parent="pf_jKpd6K8KukFcOtvKg-1" source="pf_jKpd6K8KukFcOtvKg-3" target="pf_jKpd6K8KukFcOtvKg-8" edge="1">
          <mxGeometry x="0.5965" relative="1" as="geometry">
            <mxPoint x="831.95" y="358.96" as="targetPoint" />
            <mxPoint x="1084.95" y="471.96" as="sourcePoint" />
            <mxPoint as="offset" />
          </mxGeometry>
        </mxCell>
        <mxCell id="pf_jKpd6K8KukFcOtvKg-10" value="proposesActivityScheme" style="edgeStyle=orthogonalEdgeStyle;rounded=0;orthogonalLoop=1;jettySize=auto;html=1;entryX=0.5;entryY=1;entryDx=0;entryDy=0;exitX=0;exitY=0.25;exitDx=0;exitDy=0;fontStyle=1;" parent="pf_jKpd6K8KukFcOtvKg-1" source="pf_jKpd6K8KukFcOtvKg-3" target="pf_jKpd6K8KukFcOtvKg-5" edge="1">
          <mxGeometry x="0.5856" relative="1" as="geometry">
            <mxPoint x="799.95" y="381.96" as="targetPoint" />
            <mxPoint x="664.95" y="456.96" as="sourcePoint" />
            <mxPoint as="offset" />
          </mxGeometry>
        </mxCell>
        <mxCell id="pf_jKpd6K8KukFcOtvKg-11" value="isCommittedToMission" style="edgeStyle=orthogonalEdgeStyle;rounded=0;orthogonalLoop=1;jettySize=auto;html=1;exitX=1;exitY=0.5;exitDx=0;exitDy=0;entryX=1;entryY=0.5;entryDx=0;entryDy=0;fontStyle=1;" parent="pf_jKpd6K8KukFcOtvKg-1" source="pf_jKpd6K8KukFcOtvKg-4" target="pf_jKpd6K8KukFcOtvKg-8" edge="1">
          <mxGeometry x="0.4307" relative="1" as="geometry">
            <mxPoint x="799.95" y="381.96" as="targetPoint" />
            <mxPoint x="678.95" y="489.96" as="sourcePoint" />
            <mxPoint as="offset" />
            <Array as="points">
              <mxPoint x="990" y="641" />
              <mxPoint x="990" y="288" />
            </Array>
          </mxGeometry>
        </mxCell>
        <mxCell id="pf_jKpd6K8KukFcOtvKg-12" value="hasOrganizationalGoal" style="endArrow=none;html=1;rounded=0;startArrow=classic;startFill=1;endFill=0;exitX=0.5;exitY=1;exitDx=0;exitDy=0;entryX=0.5;entryY=0;entryDx=0;entryDy=0;fontStyle=1" parent="pf_jKpd6K8KukFcOtvKg-1" source="pf_jKpd6K8KukFcOtvKg-14" target="pf_jKpd6K8KukFcOtvKg-3" edge="1">
          <mxGeometry width="50" height="50" relative="1" as="geometry">
            <mxPoint x="447.95000000000005" y="470.46" as="sourcePoint" />
            <mxPoint x="567.95" y="545.9599999999999" as="targetPoint" />
          </mxGeometry>
        </mxCell>
        <mxCell id="pf_jKpd6K8KukFcOtvKg-14" value="Organizational&lt;br&gt;Goal" style="rounded=1;whiteSpace=wrap;html=1;fontStyle=1;fillColor=#f5f5f5;fontColor=#333333;strokeColor=#666666;" parent="pf_jKpd6K8KukFcOtvKg-1" vertex="1">
          <mxGeometry x="528.95" y="257.96" width="120" height="60" as="geometry" />
        </mxCell>
        <mxCell id="pf_jKpd6K8KukFcOtvKg-15" value="isDependentOnActivityScheme" style="edgeStyle=orthogonalEdgeStyle;rounded=0;orthogonalLoop=1;jettySize=auto;html=1;exitX=0.25;exitY=0;exitDx=0;exitDy=0;entryX=0;entryY=0.25;entryDx=0;entryDy=0;fontStyle=1" parent="pf_jKpd6K8KukFcOtvKg-1" source="pf_jKpd6K8KukFcOtvKg-5" target="pf_jKpd6K8KukFcOtvKg-5" edge="1">
          <mxGeometry x="0.1821" y="-10" relative="1" as="geometry">
            <Array as="points">
              <mxPoint x="270" y="217.13" />
              <mxPoint x="200" y="217.13" />
              <mxPoint x="200" y="271.13" />
            </Array>
            <mxPoint as="offset" />
          </mxGeometry>
        </mxCell>
        <mxCell id="pf_jKpd6K8KukFcOtvKg-16" value="isSubOrganizationalGoalOf" style="edgeStyle=orthogonalEdgeStyle;rounded=0;orthogonalLoop=1;jettySize=auto;html=1;exitX=0.25;exitY=0;exitDx=0;exitDy=0;entryX=0;entryY=0.25;entryDx=0;entryDy=0;fontStyle=1" parent="pf_jKpd6K8KukFcOtvKg-1" source="pf_jKpd6K8KukFcOtvKg-14" target="pf_jKpd6K8KukFcOtvKg-14" edge="1">
          <mxGeometry x="0.1957" y="-10" relative="1" as="geometry">
            <Array as="points">
              <mxPoint x="559" y="220" />
              <mxPoint x="500" y="220" />
              <mxPoint x="500" y="273" />
            </Array>
            <mxPoint as="offset" />
          </mxGeometry>
        </mxCell>
        <mxCell id="2sfkldDoF-69XZVSfydU-0" value="hasRootActivityScheme" style="edgeStyle=orthogonalEdgeStyle;rounded=0;orthogonalLoop=1;jettySize=auto;html=1;exitX=0.5;exitY=0;exitDx=0;exitDy=0;entryX=0.5;entryY=1;entryDx=0;entryDy=0;fontColor=#000000;fontStyle=1;startArrow=classic;startFill=1;endArrow=none;endFill=0;" parent="pf_jKpd6K8KukFcOtvKg-1" source="pf_jKpd6K8KukFcOtvKg-5" target="bbpX5XB24P7KYAWKwHYj-0" edge="1">
          <mxGeometry x="0.3457" relative="1" as="geometry">
            <Array as="points">
              <mxPoint x="300" y="200" />
              <mxPoint x="300" y="200" />
            </Array>
            <mxPoint as="offset" />
          </mxGeometry>
        </mxCell>
        <mxCell id="bbpX5XB24P7KYAWKwHYj-0" value="Process&lt;br&gt;Scheme" style="rounded=1;whiteSpace=wrap;html=1;fontSize=12;fontStyle=1;fillColor=#f5f5f5;fontColor=#333333;strokeColor=#666666;" parent="pf_jKpd6K8KukFcOtvKg-1" vertex="1">
          <mxGeometry x="240" y="79.99999999999997" width="120" height="63" as="geometry" />
        </mxCell>
      </root>
    </mxGraphModel>
  </diagram>
</mxfile>
